<?xml version="1.0" encoding="UTF-8"?>
<svg xmlns="http://www.w3.org/2000/svg" version="1.1" viewBox="0 0 160 160">
  <!-- Generator: Adobe Illustrator 29.7.1, SVG Export Plug-In . SVG Version: 2.1.1 Build 8)  -->
  <defs>
    <style>
      .st0 {
        isolation: isolate;
      }

      .st1 {
        mix-blend-mode: multiply;
      }

      .st2 {
        opacity: .9;
      }
    </style>
  </defs>
  <g class="st0">
    <g id="Layer_1">
      <g class="st2">
        <path d="M63.65,36.57v26.48c-4.06,3.16-6.44,7.99-6.44,13.18s2.38,10.02,6.44,13.18v26.48c-17.95-4.62-30.67-20.83-30.67-39.66s12.72-35.04,30.67-39.66M66.29,30.94c-.14,0-.27.01-.41.04-21.54,3.82-37.89,22.62-37.89,45.26s16.36,41.44,37.89,45.26c.14.02.28.04.41.04,1.28,0,2.37-1.05,2.37-2.38v-31.08c0-.81-.42-1.55-1.09-1.99-3.22-2.09-5.35-5.71-5.35-9.84s2.13-7.74,5.35-9.84c.68-.44,1.09-1.18,1.09-1.99v-31.08c0-1.33-1.09-2.38-2.37-2.38h0Z"/>
        <path d="M80.88,92.01l15.93,18.22c-5.36,3.62-11.43,5.89-17.85,6.67v-24.2c.65-.19,1.29-.43,1.91-.7M81.53,86.25c-.36,0-.71.09-1.01.28-1.37.88-2.92,1.49-4.6,1.74-.97.14-1.95.9-1.95,1.88v30.08c0,1.08.87,1.93,1.93,1.93.03,0,.06,0,.09,0,10-.44,19.17-4.08,26.52-9.91.87-.69,1-1.96.27-2.79l-19.68-22.5c-.39-.45-.99-.7-1.58-.7h0Z"/>
        <path d="M79.05,35.57c18.56,2.3,33.32,17.08,35.58,35.66h-24.27c-1.66-5.44-5.98-9.8-11.32-11.4v-24.27M76.76,30.34c-1.54,0-2.72,1.28-2.72,2.85v28.72c0,1.39,1.34,2.22,2.7,2.5,4.57.94,8.18,4.79,9.11,9.37.28,1.36.73,2.22,2.4,2.45h28.73c1.63,0,2.95-1.38,2.84-3-1.48-23-19.89-41.4-42.89-42.88-.06,0-.12,0-.18,0h0Z"/>
        <path d="M96.46,86.53h17.15c-1.19,4.61-3.19,8.98-5.89,12.91l-11.26-12.91M89.44,81.53c-1.55,0-2.38,1.83-1.36,3l18.44,21.15c.36.41.86.62,1.36.62s1.04-.22,1.41-.66c5.14-6.17,8.69-13.71,10.03-21.99.18-1.1-.67-2.11-1.79-2.11h-28.09Z"/>
        <g class="st1">
          <path d="M79.05,23.43c12.27,1.15,23.73,6.53,32.5,15.3,8.77,8.77,14.15,20.23,15.3,32.5h-36.46c-1.58-5.41-5.9-9.75-11.34-11.39V23.43M76.64,18.26c-1.42,0-2.6,1.15-2.6,2.59v40.89c0,1.66,1.36,2.39,2.48,2.61,4.99,1,8.54,5.1,9.33,9.42.31,1.72,1.36,2.45,2.6,2.45h40.97c1.48,0,2.66-1.24,2.59-2.72-1.38-29.89-25.36-53.87-55.25-55.25-.04,0-.08,0-.12,0h0Z"/>
        </g>
        <g class="st1">
          <path d="M80.88,92c8.21,9.39,19.25,21.98,29.07,33.04-8.97,6.77-19.78,10.81-30.98,11.57,0-5.21,0-13.69,0-22.1,0-8.5,0-16.93,0-21.81.65-.2,1.29-.43,1.91-.71M81.55,86.24c-.36,0-.71.1-1.03.3-1.42.91-3.04,1.53-4.78,1.79-1,.15-1.77.96-1.77,1.98,0,8.14-.01,40.81,0,49.38,0,1.16,1.01,2.07,2.16,2.07.01,0,.03,0,.04,0,14.96-.27,28.69-5.77,39.39-14.78.88-.74.96-2.07.19-2.93-11.04-12.4-24.1-27.31-32.65-37.09-.4-.46-.98-.71-1.56-.71h0Z"/>
        </g>
      </g>
    </g>
  </g>
</svg>